<?xml version="1.0" standalone="no"?>
<!DOCTYPE svg PUBLIC "-//W3C//DTD SVG 20010904//EN"
 "http://www.w3.org/TR/2001/REC-SVG-20010904/DTD/svg10.dtd">
<svg version="1.0" xmlns="http://www.w3.org/2000/svg"
 width="300.000000pt" height="300.000000pt" viewBox="0 0 300.000000 300.000000"
 preserveAspectRatio="xMidYMid meet">
<metadata>
Created by potrace 1.11, written by Peter Selinger 2001-2013
</metadata>
<g transform="translate(0.000000,300.000000) scale(0.100000,-0.100000)"
fill="#000000" stroke="none">
<path d="M997 2954 c-1 -1 -47 -4 -102 -7 -114 -7 -134 -10 -230 -38 -265 -78
-417 -293 -462 -654 -10 -75 -10 -1429 -1 -1510 42 -362 195 -583 464 -674 33
-11 82 -23 110 -27 27 -3 52 -8 56 -11 11 -6 267 -5 303 2 109 20 147 30 205
52 36 14 84 39 107 54 23 16 44 29 47 29 3 0 6 -25 6 -55 0 -53 1 -55 28 -56
113 -4 737 0 768 5 84 13 110 20 164 41 204 80 322 255 377 560 2 11 5 92 8
180 8 302 -47 488 -183 621 -57 55 -176 124 -215 124 -29 0 -10 15 38 30 195
61 294 256 296 580 3 433 -170 663 -536 716 -27 4 -205 8 -395 8 l-345 1 -3
-57 -3 -57 -37 22 c-20 12 -38 25 -40 29 -2 4 -9 8 -16 8 -7 0 -30 8 -52 19
-52 25 -170 51 -272 60 -45 4 -84 6 -85 5z m146 -337 c126 -40 197 -155 213
-347 9 -106 9 -1472 0 -1560 -27 -267 -148 -375 -409 -365 -179 8 -269 79
-319 252 l-23 78 0 825 0 825 22 71 c57 181 159 246 373 239 52 -2 117 -10
143 -18z m1057 -3 c65 -9 141 -46 181 -86 79 -79 106 -309 63 -543 -9 -52 -52
-132 -90 -169 -65 -63 -124 -79 -320 -84 l-171 -4 0 450 0 451 146 -4 c80 -2
166 -7 191 -11z m-35 -1198 c64 -7 148 -43 193 -82 100 -85 151 -254 147 -481
-4 -199 -33 -320 -96 -396 -36 -44 -109 -84 -179 -97 -44 -8 -178 -13 -316
-11 l-51 1 0 535 c0 469 2 534 15 537 22 4 240 0 287 -6z"/>
</g>
</svg>
